<svg xmlns="http://www.w3.org/2000/svg" width="24" height="24" viewBox="0 0 24 24" fill="none">
  <!-- Film strip background -->
  <rect x="2" y="4" width="20" height="16" rx="2" fill="currentColor" stroke="currentColor" stroke-width="1"/>
  
  <!-- Film strip holes (left side) -->
  <rect x="3" y="5.5" width="2" height="1.5" fill="white"/>
  <rect x="3" y="8" width="2" height="1.5" fill="white"/>
  <rect x="3" y="10.5" width="2" height="1.5" fill="white"/>
  <rect x="3" y="13" width="2" height="1.5" fill="white"/>
  <rect x="3" y="15.5" width="2" height="1.5" fill="white"/>
  <rect x="3" y="18" width="2" height="1.5" fill="white"/>
  
  <!-- Film strip holes (right side) -->
  <rect x="19" y="5.5" width="2" height="1.5" fill="white"/>
  <rect x="19" y="8" width="2" height="1.5" fill="white"/>
  <rect x="19" y="10.5" width="2" height="1.5" fill="white"/>
  <rect x="19" y="13" width="2" height="1.5" fill="white"/>
  <rect x="19" y="15.5" width="2" height="1.5" fill="white"/>
  <rect x="19" y="18" width="2" height="1.5" fill="white"/>
  
  <!-- Main film area -->
  <rect x="6" y="5" width="12" height="14" fill="white"/>
  
  <!-- Upload arrow (green) -->
  <g fill="#22c55e" stroke="#22c55e" stroke-width="1.5">
    <!-- Arrow shaft -->
    <line x1="12" y1="16" x2="12" y2="8" stroke-linecap="round"/>
    <!-- Arrow head -->
    <polyline points="9,11 12,8 15,11" fill="none" stroke-linecap="round" stroke-linejoin="round"/>
  </g>
</svg>
